<svg width="16" height="16" viewBox="0 0 16 16" fill="none" xmlns="http://www.w3.org/2000/svg">
<path d="M4 4C3.44772 4 3 4.44772 3 5V7.44186C3 7.99414 3.44772 8.44186 4 8.44186H5.3876C5.3876 8.79328 5.36693 9.1447 5.32558 9.49612C5.26357 9.86822 5.16021 10.199 5.0155 10.4884C4.8708 10.7778 4.68475 11.0052 4.45736 11.1705C4.22997 11.3566 3.94057 11.4496 3.58915 11.4496V13C4.16796 13 4.67442 12.876 5.10853 12.6279C5.54264 12.3798 5.90439 12.0491 6.1938 11.6357C6.46253 11.2222 6.66925 10.7364 6.81395 10.1783C6.93798 9.64083 7 9.06201 7 8.44186V5C7 4.44772 6.55228 4 6 4H4Z" fill="#FFA31A"/>
<path d="M10 4C9.44772 4 9 4.44772 9 5V7.44186C9 7.99414 9.44772 8.44186 10 8.44186H11.3876C11.3876 8.79328 11.3669 9.1447 11.3256 9.49612C11.2636 9.86822 11.1602 10.199 11.0155 10.4884C10.8708 10.7778 10.6848 11.0052 10.4574 11.1705C10.23 11.3566 9.94057 11.4496 9.58915 11.4496V13C10.168 13 10.6744 12.876 11.1085 12.6279C11.5426 12.3798 11.9044 12.0491 12.1938 11.6357C12.4625 11.2222 12.6693 10.7364 12.814 10.1783C12.938 9.64083 13 9.06201 13 8.44186V5C13 4.44772 12.5523 4 12 4H10Z" fill="#FFA31A"/>
</svg>
